<?xml version="1.0" encoding="utf-8"?>
<!-- Generator: Adobe Illustrator 21.0.2, SVG Export Plug-In . SVG Version: 6.00 Build 0)  -->
<svg version="1.1" id="svg2816" xmlns:svg="http://www.w3.org/2000/svg"
	 xmlns="http://www.w3.org/2000/svg" xmlns:xlink="http://www.w3.org/1999/xlink" x="0px" y="0px" viewBox="0 0 16 16"
	 style="enable-background:new 0 0 16 16;" xml:space="preserve">
<style type="text/css">
	.st0{fill:none;}
	.st1{fill:#A81C7D;}
	.st2{fill:#FFFFFF;}
</style>
<polyline class="st0" points="0.7,3.2 0.7,13.1 17.3,13.1 17.3,3.2 "/>
<path id="path2838" class="st1" d="M17.2,9.2c0,0-0.2-0.2-0.4-0.3c-0.2-0.1-0.2-0.2-0.3-0.2c-0.1,0-0.3,0-0.5-0.1
	c-0.2-0.1-0.6-0.3-0.8-0.4C15,8.1,14.9,8,14.8,8c-0.1,0-0.1,0-0.3,0c0,0-0.5,0.1-0.7,0.2c-0.2,0.1-0.6,0.3-0.6,0.3c0,0-0.1,0-0.1,0
	c0,0,0,0,0,0c0,0-0.3-0.3-0.3-0.3c-0.1-0.1-0.4-0.4-0.6-0.5c-0.2-0.1-0.8-0.3-1.1-0.3c-0.2,0-0.4,0.2-0.4,0.3
	c-0.1-0.1-0.1-0.2-0.2-0.2c-0.2-0.2-0.2-0.2-0.2-0.2s-0.2,0-0.3,0.1C9.9,7.5,9.8,7.6,9.7,7.7c-0.1,0-0.1,0-0.2,0
	C9.4,7.9,8.7,8.3,8.6,8.4c0,0.1,0,0.1-0.1,0.1c-0.1-0.1-0.2-0.1-0.3,0c0,0,0,0,0,0c0-0.3-0.1-1.2-0.1-1.3c0-0.1-0.1-0.2-0.2-0.1
	c-0.1,0-0.2,0.2-0.2,0.3c0,0.1,0.1,0.2,0.1,0.3c0,0,0,0.7,0.1,1C7.8,8.8,7.7,8.8,7.7,8.9C7.6,9.1,7.6,9.2,7.6,9.2c0,0,0,0,0,0
	c0,0-0.1-0.1-0.1-0.1c0-0.1,0-0.2,0.1-0.2c0.1-0.1,0.1-0.4,0-0.4c-0.1,0-0.1,0-0.1,0s0.2-0.6,0.1-0.9c0-0.3-0.1-0.7-0.1-0.7
	c-0.1-0.1-0.2,0-0.2,0S6.9,6.9,6.6,7C6.4,7.2,5.9,7.5,5.8,7.6C5.7,7.7,5.4,8,5.4,8l0,0c-0.2,0-0.5,0-0.6,0c-0.3,0.1-0.9,0.5-1,0.7
	C3.7,8.9,3.6,9.1,3.6,9.3c-0.1,0.2-0.2,0.6,0.1,1.2c0,0,0.2,0.1,0.4,0.1c0.1,0,0.1,0,0.2,0c-0.2,0.3-0.5,0.6-0.6,0.7
	c-0.2,0.2-1.2,1-1.3,1.1c-0.2,0-0.2,0-0.1,0.1c0.1,0.1,0.4,0,0.5-0.1C2.8,12.2,3,12,3.1,11.9c0.1-0.1,0.6-0.4,0.7-0.5
	c0-0.1,0.8-0.8,0.9-1c0.1,0,0.1-0.1,0.1-0.1c0,0,0.1,0,0.1,0c0.3-0.1,0.6-0.4,0.8-0.7C5.9,9.5,6,9.4,6,9.2c0.1-0.1,0.2-0.1,0.2-0.1
	c0.1,0,0.2-0.1,0.2,0.1c0,0.2,0.2,0.5,0.3,0.7c0.1,0.2,0.3,0.4,0.3,0.4s0,0.1,0.1,0.1c0.1,0,0.2,0,0.2,0c0,0.1,0.2,0,0.3-0.1
	c0.1-0.1,0.1,0.1,0.3,0c0.1-0.1,0.2-0.2,0.2-0.3c0-0.1,0-0.1-0.1-0.1c0,0,0,0,0,0s0.1,0,0.2,0c0,0,0,0.1,0,0.2
	c0,0.2,0.2,0.4,0.3,0.4c0.1,0,0.2,0.1,0.2,0.1s0,0.2,0.1,0.2c0.1,0,0.5-0.1,0.6-0.2c0.1-0.1,0.3,0.1,0.3,0.3
	c0.1,0.2,0.5,0.8,0.6,0.9c0.1,0.2,0.3,0.4,0.5,0.6c0.2,0.2,0.1,0.2,0.1,0.2c0.1,0,0,0,0.1,0.1c0,0,0.3,0.2,0.4,0.2
	c0.1,0,0.3,0.1,0.4,0.1c0,0,0.1-0.1,0.1-0.1s0,0-0.2,0c-0.2-0.1-0.4-0.2-0.5-0.3c0,0-0.1-0.1-0.1-0.1s-0.2-0.3-0.4-0.6
	c0,0-0.1-0.3-0.3-0.6c-0.1-0.3-0.6-1.1-0.7-1.1c-0.2,0-0.4,0-0.5,0.1c-0.1,0.1-0.2,0.1-0.3,0c-0.1,0,0-0.2,0-0.3
	c0-0.1,0-0.1-0.1-0.2c0,0,0.1,0,0.1-0.1c0-0.1,0-0.1,0.2-0.1c0,0,0,0,0.1,0c0,0,0,0.1,0,0.1c0,0.1,0.1,0.3,0.2,0.3
	c0.1,0,0.6,0.3,0.8,0.2c0.1-0.1,0.6-0.4,0.7-0.4c0.1,0,0.2-0.1,0.3-0.1c0.1,0,0.2,0.4,0.4,0.7c0.2,0.3,0.2,0.5,0.3,0.4
	c0.1,0,0.1,0.1,0.2,0.1c0.1,0,0.1,0.1,0.2,0.2c0.1,0.1,0.1,0.3,0.3,0.3c0.2,0,0.8,0.2,0.9,0.2c0.1,0,0.1-0.1-0.1-0.2
	c-0.2,0-0.6,0-0.7-0.1c-0.1-0.1-0.1-0.4-0.2-0.5c-0.1,0-0.3-0.1-0.3-0.1c0,0-0.4-0.7-0.5-1c0.2,0.1,0.5,0.2,0.7,0.2
	c0.3,0.1,0.7,0.2,0.9,0.2c0.1,0,0.2,0,0.2-0.1c0,0,0,0.1,0,0.1c0,0.1,0.1,0.1,0.1,0.1s0,0,0,0.1c0.1,0,0.4,0.1,0.6,0.2
	c0.1,0.1,0.3,0.4,0.4,0.6c0,0.2,0.2,0.5,0.2,0.5c0.1,0,0.2,0,0.1-0.3c-0.1-0.3-0.2-0.5-0.4-0.7c-0.2-0.1-0.6-0.3-0.7-0.4
	c-0.1,0-0.1-0.1-0.2-0.1c0,0,0,0-0.1-0.2c0,0,0-0.1,0-0.1c0,0,0.1-0.1,0.1-0.3c0-0.2-0.1-0.6-0.1-0.7c0,0,0-0.1,0-0.1c0,0,0,0,0.1,0
	c0.1,0,0.2-0.2,0.4-0.3c0.2-0.1,0.5-0.2,0.7-0.2c0.3,0,0.3,0,0.3,0s0.1,0,0.3,0.1c0.1,0.1,1,0.5,1.1,0.5c0.1,0,0.3,0.1,0.4,0.2
	C16.6,9,16.7,9,16.7,9s0.1,0.1,0.2,0.2c0.1,0.1,0.2,0.1,0.3,0.2C17.3,9.4,17.5,9.5,17.2,9.2L17.2,9.2z M6.1,9.1C6.1,9,6.1,9,6.1,9.1
	c0-0.1,0-0.2,0-0.3c0,0,0.1,0.1,0.2,0.1C6.2,9,6.2,9,6.1,9.1L6.1,9.1z M6.9,8.2c-0.1-0.1-0.4,0-0.5,0.1c-0.1,0-0.2,0.1-0.3,0.1
	C6.1,8.3,6,8.2,6,8.2c-0.1,0-0.2-0.1-0.4-0.1l0.3-0.3c0,0,0.2,0,0.4-0.1C6.4,7.5,7,6.9,7.1,6.9c0.1,0,0.2,0,0.1,0.1
	c0,0.1-0.1,0.7-0.1,0.9c0,0.2,0,0.6,0,0.6S7,8.6,7,8.7c0,0-0.1,0-0.1,0C6.9,8.7,7,8.3,6.9,8.2L6.9,8.2z M7.4,10
	c-0.1,0.1-0.1,0-0.1,0S7,9.7,6.9,9.4c0,0,0-0.1,0-0.1c0.1,0,0.1,0,0.2,0.1c0.1,0.1,0.1,0.2,0.2,0.3c0,0.1,0,0.2,0.1,0.2
	c0.1,0,0.3,0,0.3,0s0,0,0,0C7.5,9.9,7.4,10,7.4,10z M10.1,7.6c0.1-0.1,0.2-0.1,0.2,0c0,0.1,0.1,0.3,0.1,0.4c-0.1,0-0.2,0-0.2,0
	c-0.1-0.1-0.2-0.2-0.3-0.2C10.1,7.7,10.1,7.7,10.1,7.6L10.1,7.6z M10.7,9.3c0,0-0.8,0.1-0.9,0.2C9.7,9.6,9.5,9.7,9.5,9.7
	c-0.1,0,0.1-0.1,0.4-0.3C9.9,9.4,9.9,9.3,10,9.2c0,0,0,0,0-0.1c0.1-0.2,0.3-0.4,0.4-0.5c0,0,0.1,0,0.1,0c0,0.2,0.1,0.3,0.1,0.4
	c0,0.1,0.1,0.2,0.3,0.2C10.8,9.3,10.7,9.3,10.7,9.3L10.7,9.3z M12.1,9.4c-0.1,0.1-0.2,0.1-0.3-0.2c-0.2-0.3,0-0.4,0.1-0.4
	c0.1,0,0.1,0,0.2,0.2C12.1,9.1,12.2,9.3,12.1,9.4"/>
<path id="path2862" class="st2" d="M0.7,11.6l10.4-8.4h0.1l3.7,8.4H0.7"/>
<path id="path2864" class="st1" d="M10,9.2c0,0.1-0.1,0.2-0.2,0.2C9.6,9.6,9.4,9.7,9.5,9.7c0.1,0,0.2-0.1,0.3-0.1
	c0.1-0.1,0.9-0.2,0.9-0.2c0,0,0.1,0,0.2,0c-0.1-0.1-0.2-0.2-0.3-0.2c-0.1-0.1-0.1-0.2-0.1-0.4c0,0-0.1,0-0.1,0
	C10.3,8.8,10.1,9,10,9.2C10,9.2,10,9.2,10,9.2"/>
<path id="path2866" class="st1" d="M10.5,8c0-0.2-0.1-0.4-0.1-0.4c0-0.1-0.1-0.1-0.2,0c-0.1,0.1-0.1,0.2-0.1,0.2
	c0.1,0,0.2,0.1,0.3,0.2C10.3,8,10.4,8,10.5,8"/>
<path id="path2868" class="st1" d="M11.9,8.8c-0.1,0-0.3,0.1-0.1,0.4c0.2,0.3,0.3,0.2,0.3,0.2c0.1-0.1,0-0.2,0-0.4
	C11.9,8.8,11.9,8.8,11.9,8.8"/>
<path id="path2870" class="st1" d="M6.6,7c0.3-0.2,0.5-0.3,0.5-0.3s0.2,0,0.2,0c0.1,0.1,0.1,0.4,0.1,0.7c0,0.3-0.1,0.9-0.1,0.9
	s0,0,0.1,0c0.1,0,0.1,0.4,0,0.4C7.4,9,7.4,9.1,7.4,9.2c0,0,0.1,0.1,0.1,0.1c0,0,0,0,0,0c0.1-0.1,0-0.1,0.1-0.3
	c0-0.1,0.1-0.2,0.3-0.2c0-0.3,0-0.9-0.1-1c0-0.1-0.1-0.1-0.1-0.3c0-0.1,0.1-0.3,0.2-0.3c0.1,0,0.1,0,0.2,0.1c0,0.1,0.1,0.9,0.1,1.3
	c0,0,0,0,0,0c0.1-0.1,0.2,0,0.3,0c0,0,0.1-0.1,0.1-0.1c0-0.1,0.7-0.6,0.8-0.7c0,0,0.1,0,0.2,0C9.8,7.6,9.9,7.5,10,7.4
	c0.2-0.1,0.3-0.1,0.3-0.1s0,0.1,0.2,0.2c0.1,0.1,0.1,0.2,0.2,0.2c0.1-0.2,0.2-0.3,0.4-0.3c0.3,0,0.9,0.2,1.1,0.3
	c0.2,0.1,0.4,0.4,0.6,0.5c0,0,0.3,0.3,0.3,0.3c0,0,0,0,0,0c0,0,0.1,0,0.1,0c0,0,0.1-0.1,0.2-0.1l-2.2-5.1h-0.1l-4.9,4
	C6.3,7.2,6.5,7.1,6.6,7"/>
<path id="path2872" class="st1" d="M8.6,10.3c-0.1,0-0.3-0.1-0.3-0.4c0-0.1,0-0.1,0-0.2c-0.1,0-0.2,0-0.2,0s0,0,0,0
	c0,0,0.1,0.1,0.1,0.1c0,0.1-0.1,0.3-0.2,0.3c-0.1,0.1-0.2-0.1-0.3,0c-0.1,0.1-0.3,0.2-0.3,0.1c0,0-0.1,0-0.2,0
	c-0.1,0-0.1-0.1-0.1-0.1S6.9,10,6.8,9.8C6.7,9.6,6.5,9.3,6.5,9.2c0-0.2-0.1-0.1-0.2-0.1c0,0-0.1,0.1-0.2,0.1C6,9.4,5.9,9.5,5.8,9.7
	c-0.2,0.3-0.6,0.6-0.8,0.7c0,0-0.1,0-0.1,0c0,0-0.1,0.1-0.1,0.1c-0.1,0.1-0.9,0.9-0.9,1c0,0-0.2,0.2-0.4,0.3h7.1
	c0,0-0.1-0.1-0.1-0.1c-0.1-0.2-0.5-0.8-0.6-0.9c-0.1-0.2-0.2-0.3-0.3-0.3c-0.1,0.1-0.4,0.2-0.6,0.2c-0.1,0-0.1-0.2-0.1-0.2
	S8.7,10.3,8.6,10.3"/>
<path id="path2874" class="st1" d="M3.7,11.3c0.1-0.1,0.4-0.5,0.6-0.7c-0.1,0-0.2,0-0.2,0c-0.3,0-0.4-0.1-0.4-0.1
	c-0.2-0.4-0.2-0.8-0.2-1l-2.8,2.2h2.5C3.4,11.5,3.6,11.4,3.7,11.3"/>
<path id="path2876" class="st1" d="M13.2,8.7C13.2,8.7,13.2,8.7,13.2,8.7c-0.1,0.1-0.1,0.1-0.1,0.1c0.1,0.1,0.2,0.5,0.1,0.7
	c0,0.2-0.1,0.3-0.1,0.3c0,0,0,0.1,0,0.1c0,0.2,0,0.2,0.1,0.2c0,0,0.1,0.1,0.2,0.1c0.1,0,0.5,0.2,0.7,0.4c0.2,0.1,0.3,0.4,0.4,0.7
	c0.1,0.3,0,0.3-0.1,0.3c-0.1,0-0.2-0.2-0.2-0.5c0-0.2-0.2-0.5-0.4-0.6c-0.1-0.1-0.5-0.2-0.6-0.2c-0.1,0,0-0.1,0-0.1s-0.1,0-0.1-0.1
	c0,0,0,0,0-0.1c0,0-0.1,0.1-0.2,0.1c-0.2,0-0.6-0.1-0.9-0.2c-0.2-0.1-0.5-0.2-0.7-0.2c0.1,0.3,0.5,1,0.5,1c0,0,0.2,0.1,0.3,0.1
	c0.1,0,0.1,0.4,0.2,0.5c0.1,0.1,0.5,0.1,0.7,0.1c0.2,0,0.2,0.1,0.1,0.2c-0.1,0-0.7-0.1-0.9-0.2c-0.2,0-0.2-0.2-0.3-0.3
	c-0.1-0.1-0.1-0.2-0.2-0.2c-0.1,0-0.1-0.1-0.2-0.1c-0.1,0-0.1-0.1-0.3-0.4C11.2,10,11.1,9.6,11,9.6c-0.1,0-0.2,0-0.3,0.1
	c-0.1,0-0.6,0.3-0.7,0.4C9.9,10.2,9.4,10,9.3,9.9c-0.1,0-0.2-0.2-0.2-0.3c0,0,0,0,0-0.1c0,0-0.1,0-0.1,0c-0.1,0-0.1,0-0.2,0.1
	c0,0-0.1,0.1-0.1,0.1c0,0.1,0.1,0.2,0.1,0.2c0,0.2,0,0.3,0,0.3c0.1,0,0.1,0.1,0.3,0c0.1-0.1,0.4-0.2,0.5-0.1c0.2,0,0.6,0.9,0.7,1.1
	c0.1,0.2,0.2,0.4,0.2,0.5h4.2l-1.4-3.2C13.4,8.6,13.3,8.7,13.2,8.7"/>
<path id="path2878" class="st1" d="M5.4,8L5.4,8c0,0,0.3-0.3,0.4-0.4L5.3,8C5.3,8,5.4,8,5.4,8"/>
<path id="path2880" class="st1" d="M7.1,9.3C7.1,9.3,7,9.3,6.9,9.3c0,0,0,0.1,0,0.1C7,9.7,7.3,10,7.3,10s0.1,0,0.1,0
	c0,0,0.1-0.1,0.3-0.2c0,0,0,0,0,0s-0.1,0.1-0.3,0c-0.1,0-0.1-0.1-0.1-0.2C7.2,9.5,7.2,9.4,7.1,9.3"/>
<path id="path2882" class="st1" d="M7.1,6.9C7,6.9,6.4,7.5,6.2,7.6C6.1,7.7,5.8,7.8,5.8,7.8L5.5,8.1c0.2,0,0.3,0.1,0.4,0.1
	c0.1,0,0.1,0.1,0.1,0.2c0.1,0,0.2,0,0.3-0.1c0.1,0,0.4-0.1,0.5-0.1c0.1,0.1,0,0.4,0.1,0.5c0,0,0,0,0.1,0c0-0.1,0.1-0.2,0.1-0.2
	s0-0.4,0-0.6c0-0.2,0.1-0.7,0.1-0.9C7.2,6.9,7.2,6.9,7.1,6.9"/>
<path id="path2884" class="st1" d="M6.3,8.9c-0.1,0-0.2-0.1-0.2-0.1c0,0.1,0,0.1,0,0.2c0,0,0,0.1,0,0.1C6.2,9,6.2,9,6.3,8.9"/>
</svg>
